# xmcd
#
# Track frame offsets: 
#        150
#        21217
#        43117
#        65217
#        86335
#        105885
#        129455
#        142085
#        160240
#        177287
#
# Disc length: 2957 seconds
#
# Revision: 1
# Processed by: cddbd v1.5.2PL0 Copyright (c) Steve Scherf et al.
# Submitted via: ExactAudioCopy v0.95b3
#
DISCID=840b8b0a
DTITLE=Illegal Operation - Blue Project
DYEAR=2001
DGENRE=Blues
TTITLE0=Goodmorning Blues
TTITLE1=Careless Love
TTITLE2=Back Door Man
TTITLE3=Bottle-up 'n' Go
TTITLE4=See That My Grave's Kept Clean
TTITLE5=Louise
TTITLE6=Space Boogie
TTITLE7=Spoonful
TTITLE8=Catfish
TTITLE9=Driftin'
EXTD=
EXTT0=
EXTT1=
EXTT2=
EXTT3=
EXTT4=
EXTT5=
EXTT6=
EXTT7=
EXTT8=
EXTT9=
PLAYORDER=
